#!OML:ASF E:\Mandelcareful walks\Project 1\Capture day 1\Session 1\Subject1.ASF
:FULLY-SPECIFIED
:DEGREES
696
root 2.52162 17.0277 0.437058 -150.71 -86.9541 159.351
lowerback -8.25427 -0.355329 -2.83278
upperback -0.480211 -0.270767 0.984398
thorax 4.15071 -0.203962 2.58453
lowerneck -30.8196 -0.288097 -3.37664
upperneck 25.5174 1.51698 -1.18118
head 13.7764 0.0854142 0.376999
rclavicle 9.56651e-015 9.34288e-015
rhumerus -37.1242 -18.9459 -74.8706
rradius 28.924
rwrist -11.3895
rhand -4.06721 -29.9511
rfingers 7.12502
rthumb 21.6894 -58.7561
lclavicle 9.56651e-015 9.34288e-015
lhumerus -35.9582 19.9525 78.1566
lradius 24.0955
lwrist 1.4855
lhand -16.391 -15.4863
lfingers 7.12502
lthumb 9.82292 14.2645
rfemur -11.3784 -0.0595614 12.3664
rtibia 21.5767
rfoot -20.6952 -14.386
rtoes 14.7409
lfemur -12.3005 -0.695906 -20.6754
ltibia 26.0291
lfoot -20.8739 10.8276
ltoes 12.4535
697
root 2.516 17.0394 0.455684 -155.244 -86.9555 163.94
lowerback -8.09691 -0.264957 -2.75226
upperback -0.735522 -0.169405 1.01949
thorax 3.78998 -0.145244 2.58654
lowerneck -30.5208 -0.334601 -3.41987
upperneck 25.5681 1.44647 -1.16155
head 13.7408 0.0526153 0.377258
rclavicle -2.86995e-015 -1.41137e-014
rhumerus -37.8318 -20.6603 -72.9339
rradius 28.3407
rwrist -9.76162
rhand -2.29066 -26.0393
rfingers 7.12502
rthumb 23.3946 -54.6374
lclavicle -2.86995e-015 -1.41137e-014
lhumerus -36.4387 20.3676 77.009
lradius 24.2555
lwrist 2.13676
lhand -15.9447 -15.5546
lfingers 7.12502
lthumb 10.2535 14.1755
rfemur -11.589 0.0599297 12.735
rtibia 21.7459
rfoot -20.8001 -14.5986
rtoes 13.3945
lfemur -12.2706 -0.844568 -20.4806
ltibia 25.9405
lfoot -20.9317 10.976
ltoes 12.9353
698
root 2.50714 17.0493 0.477767 -160.116 -87.1 168.948
lowerback -8.09187 -0.235473 -2.56141
upperback -1.00157 -0.155628 1.05392
thorax 3.50942 -0.130451 2.51547
lowerneck -30.3394 -0.288595 -3.29436
upperneck 25.7097 1.46532 -1.232
head 13.7671 0.0589593 0.331666
rclavicle 4.43538e-015 3.97569e-016
rhumerus -38.3041 -20.2612 -72.6313
rradius 29.5985
rwrist -12.065
rhand -4.39103 -30.1098
rfingers 7.12502
rthumb 21.3784 -58.9504
lclavicle 4.43538e-015 3.97569e-016
lhumerus -37.0021 20.9741 75.6233
lradius 24.5313
lwrist 2.44753
lhand -16.515 -15.2908
lfingers 7.12502
lthumb 9.70329 14.4657
rfemur -11.8249 0.0325048 13.1051
rtibia 21.9002
rfoot -20.931 -14.3907
rtoes 14.1313
lfemur -12.3343 -1.10217 -20.2294
ltibia 25.9221
lfoot -21.0841 11.0626
ltoes 13.5712
699
root 2.50469 17.0473 0.49883 -160.233 -87.1992 169.167
lowerback -8.40466 -0.26584 -2.57197
upperback -0.935204 -0.186472 1.03649
thorax 3.75498 -0.150269 2.50054
lowerneck -30.6548 -0.270777 -3.26034
upperneck 25.796 1.53279 -1.34934
head 13.8662 0.06993 0.2925
rclavicle -9.31803e-015 1.11319e-014
rhumerus -38.1654 -21.1577 -71.6052
rradius 29.6712
rwrist -12.2371
rhand -4.00181 -29.8678
rfingers 7.12502
rthumb 21.7522 -58.6656
lclavicle -9.31803e-015 1.11319e-014
lhumerus -37.0419 21.9737 74.2909
lradius 24.7733
lwrist 2.66007
lhand -16.7141 -15.0674
lfingers 7.12502
lthumb 9.51123 14.6979
rfemur -11.9562 -0.148685 13.1907
rtibia 21.9119
rfoot -21.087 -13.6536
rtoes 15.3088
lfemur -12.4978 -1.44175 -20.2637
ltibia 26.0552
lfoot -21.3158 11.2468
ltoes 13.7093
700
root 2.5079 17.0306 0.513738 -157.714 -87.1828 166.685
lowerback -8.57824 -0.331988 -2.87646
upperback -0.877252 -0.24086 1.04434
thorax 3.91699 -0.185074 2.67466
lowerneck -30.8186 -0.290547 -3.31118
upperneck 25.7321 1.56416 -1.42988
head 13.8717 0.0666966 0.274812
rclavicle -6.43565e-015 -2.18663e-015
rhumerus -37.9355 -21.874 -70.6123
rradius 29.6693
rwrist -12.8092
rhand -3.90099 -29.5682
rfingers 7.12502
rthumb 21.849 -58.3547
lclavicle -6.43565e-015 -2.18663e-015
lhumerus -37.0737 23.0144 72.9327
lradius 24.7648
lwrist 3.35823
lhand -16.9479 -15.765
lfingers 7.12502
lthumb 9.28566 14.0106
rfemur -11.9487 -0.521585 13.2118
rtibia 21.8885
rfoot -20.8818 -12.8721
rtoes 15.6402
lfemur -12.6109 -1.53824 -20.4611
ltibia 26.2349
lfoot -21.5241 11.2893
ltoes 13.4735
701
root 2.50479 17.0263 0.527694 -157.425 -87.2536 166.473
lowerback -8.49908 -0.380665 -3.01972
upperback -1.09369 -0.29984 1.03668
thorax 3.65223 -0.210791 2.74027
lowerneck -30.6018 -0.319167 -3.38513
upperneck 25.6973 1.49826 -1.28628
head 13.8129 0.054739 0.331519
rclavicle 6.98231e-015 -1.98785e-016
rhumerus -38.1734 -22.466 -69.5262
rradius 29.7417
rwrist -13.6229
rhand -4.16234 -29.5675
rfingers 7.12502
rthumb 21.5981 -58.383
lclavicle 6.98231e-015 -1.98785e-016
lhumerus -37.586 23.6892 71.3597
lradius 24.9085
lwrist 4.28114
lhand -17.0629 -16.4158
lfingers 7.12502
lthumb 9.17463 13.3646
rfemur -11.9879 -0.681684 13.3723
rtibia 21.8965
rfoot -20.7188 -12.4782
rtoes 15.0753
lfemur -12.7498 -1.65399 -20.4831
ltibia 26.4084
lfoot -21.8259 11.2407
ltoes 13.2431
